# Blender v2.72 (sub 0) OBJ File: ''
# www.blender.org
mtllib sphere_normals_uvs.mtl
o Icosphere_Icosphere.001
v 0.000000 1.000000 0.000000
v 0.425323 0.850654 -0.309011
v -0.162456 0.850654 -0.499995
v 0.723607 0.447220 -0.525725
v 0.850648 0.525736 0.000000
v -0.525730 0.850652 0.000000
v -0.162456 0.850654 0.499995
v 0.425323 0.850654 0.309011
v 0.951058 0.000000 -0.309013
v -0.276388 0.447220 -0.850649
v 0.262869 0.525738 -0.809012
v 0.000000 0.000000 -1.000000
v -0.894426 0.447216 0.000000
v -0.688189 0.525736 -0.499997
v -0.951058 0.000000 -0.309013
v -0.276388 0.447220 0.850649
v -0.688189 0.525736 0.499997
v -0.587786 -0.000000 0.809017
v 0.723607 0.447220 0.525725
v 0.262869 0.525738 0.809012
v 0.587786 -0.000000 0.809017
v 0.587786 0.000000 -0.809017
v -0.587786 0.000000 -0.809017
v -0.951058 -0.000000 0.309013
v 0.000000 -0.000000 1.000000
v 0.951058 -0.000000 0.309013
v 0.276388 -0.447220 -0.850649
v 0.688189 -0.525736 -0.499997
v 0.162456 -0.850654 -0.499995
v -0.723607 -0.447220 -0.525725
v -0.262869 -0.525738 -0.809012
v -0.425323 -0.850654 -0.309011
v -0.723607 -0.447220 0.525725
v -0.850648 -0.525736 -0.000000
v -0.425323 -0.850654 0.309011
v 0.276388 -0.447220 0.850649
v -0.262869 -0.525738 0.809012
v 0.162456 -0.850654 0.499995
v 0.894426 -0.447216 -0.000000
v 0.688189 -0.525736 0.499997
v 0.525730 -0.850652 -0.000000
v 0.000000 -1.000000 -0.000000
vt 0.831456 0.500000
vt 0.787860 0.440920
vt 0.849200 0.401533
vt 0.735807 0.395896
vt 0.735807 0.500000
vt 0.240646 0.500000
vt 0.258390 0.401533
vt 0.292699 0.500000
vt 0.258390 0.598467
vt 0.849200 0.598467
vt 0.787860 0.559080
vt 0.683754 0.440920
vt 0.883508 0.308701
vt 0.787859 0.322759
vt 0.935562 0.204595
vt 0.344752 0.500000
vt 0.327007 0.401533
vt 0.388349 0.440920
vt 0.292698 0.691299
vt 0.327007 0.598468
vt 0.388349 0.677243
vt 0.735807 0.604104
vt 0.787859 0.677241
vt 0.683754 0.677243
vt 0.683754 0.322757
vt 0.292698 0.308701
vt 0.344752 0.204595
vt 0.388349 0.322757
vt 0.388349 0.559080
vt 0.883508 0.691299
vt 0.640157 0.795405
vt 0.683754 0.559080
vt 0.588103 0.308701
vt 0.622412 0.401532
vt 0.553795 0.401533
vt 0.440402 0.395896
vt 0.492454 0.322759
vt 0.492455 0.440920
vt 0.440402 0.604104
vt 0.440402 0.500000
vt 0.492455 0.559080
vt 0.588103 0.691299
vt 0.492454 0.677241
vt 0.553795 0.598467
vt 0.640157 0.500000
vt 0.622412 0.598468
vt 0.588104 0.500000
vt 0.536051 0.500000
vn 0.102400 0.943500 -0.315100
vn 0.700200 0.661700 -0.268000
vn -0.268000 0.943500 -0.194700
vn -0.268000 0.943500 0.194700
vn 0.102400 0.943500 0.315100
vn 0.905000 0.330400 -0.268000
vn 0.024700 0.330400 -0.943500
vn -0.889700 0.330400 -0.315100
vn -0.574600 0.330400 0.748800
vn 0.534600 0.330400 0.777900
vn 0.802600 0.125600 -0.583100
vn -0.306600 0.125600 -0.943500
vn -0.992100 0.125600 0.000000
vn -0.306600 0.125600 0.943500
vn 0.802600 0.125600 0.583100
vn 0.408900 -0.661700 -0.628400
vn -0.471300 -0.661700 -0.583100
vn -0.700200 -0.661700 0.268000
vn 0.038500 -0.661700 0.748800
vn 0.724000 -0.661700 0.194700
vn -0.038500 0.661700 -0.748800
vn 0.187600 0.794700 -0.577300
vn 0.471300 0.661700 -0.583100
vn 0.700200 0.661700 0.268000
vn 0.607100 0.794700 0.000000
vn 0.331300 0.943500 0.000000
vn -0.724000 0.661700 -0.194700
vn -0.491100 0.794700 -0.356800
vn -0.408900 0.661700 -0.628400
vn -0.408900 0.661700 0.628400
vn -0.491100 0.794700 0.356800
vn -0.724000 0.661700 0.194700
vn 0.471300 0.661700 0.583100
vn 0.187600 0.794700 0.577300
vn -0.038500 0.661700 0.748800
vn 0.992100 -0.125600 0.000000
vn 0.982200 0.187600 0.000000
vn 0.905000 0.330400 0.268000
vn 0.306600 -0.125600 -0.943500
vn 0.303500 0.187600 -0.934200
vn 0.534600 0.330400 -0.777900
vn -0.802600 -0.125600 -0.583100
vn -0.794700 0.187600 -0.577300
vn -0.574600 0.330400 -0.748800
vn -0.802600 -0.125600 0.583100
vn -0.794700 0.187600 0.577300
vn -0.889700 0.330400 0.315100
vn 0.306600 -0.125600 0.943500
vn 0.303500 0.187600 0.934200
vn 0.024700 0.330400 0.943500
vn 0.574600 -0.330400 -0.748800
vn 0.794700 -0.187600 -0.577300
vn 0.889700 -0.330400 -0.315100
vn -0.534600 -0.330400 -0.777900
vn -0.303500 -0.187600 -0.934200
vn -0.024700 -0.330400 -0.943500
vn -0.905000 -0.330400 0.268000
vn -0.982200 -0.187600 0.000000
vn -0.905000 -0.330400 -0.268000
vn -0.024700 -0.330400 0.943500
vn -0.303500 -0.187600 0.934200
vn -0.534600 -0.330400 0.777900
vn 0.889700 -0.330400 0.315100
vn 0.794700 -0.187600 0.577300
vn 0.574600 -0.330400 0.748800
vn 0.268000 -0.943500 -0.194700
vn 0.491100 -0.794700 -0.356800
vn 0.724000 -0.661700 -0.194700
vn -0.102400 -0.943500 -0.315100
vn -0.187600 -0.794700 -0.577300
vn 0.038500 -0.661700 -0.748800
vn -0.331300 -0.943500 0.000000
vn -0.607100 -0.794700 0.000000
vn -0.700200 -0.661700 -0.268000
vn -0.102400 -0.943500 0.315100
vn -0.187600 -0.794700 0.577300
vn -0.471300 -0.661700 0.583100
vn 0.268000 -0.943500 0.194700
vn 0.491100 -0.794700 0.356800
vn 0.408900 -0.661700 0.628400
usemtl None
s off
f 1/1/1 2/2/1 3/3/1
f 4/4/2 2/2/2 5/5/2
f 1/6/3 3/7/3 6/8/3
f 1/6/4 6/8/4 7/9/4
f 1/1/5 7/10/5 8/11/5
f 4/4/6 5/5/6 9/12/6
f 10/13/7 11/14/7 12/15/7
f 13/16/8 14/17/8 15/18/8
f 16/19/9 17/20/9 18/21/9
f 19/22/10 20/23/10 21/24/10
f 4/4/11 9/12/11 22/25/11
f 10/26/12 12/27/12 23/28/12
f 13/16/13 15/18/13 24/29/13
f 16/30/14 18/21/14 25/31/14
f 19/22/15 21/24/15 26/32/15
f 27/33/16 28/34/16 29/35/16
f 30/36/17 31/37/17 32/38/17
f 33/39/18 34/40/18 35/41/18
f 36/42/19 37/43/19 38/44/19
f 39/45/20 40/46/20 41/47/20
f 3/3/21 11/14/21 10/13/21
f 3/3/22 2/2/22 11/14/22
f 2/2/23 4/4/23 11/14/23
f 5/5/24 8/11/24 19/22/24
f 5/5/25 2/2/25 8/11/25
f 2/2/26 1/1/26 8/11/26
f 6/8/27 14/17/27 13/16/27
f 6/8/28 3/7/28 14/17/28
f 3/7/29 10/26/29 14/17/29
f 7/9/30 17/20/30 16/19/30
f 7/9/31 6/8/31 17/20/31
f 6/8/32 13/16/32 17/20/32
f 8/11/33 20/23/33 19/22/33
f 8/11/34 7/10/34 20/23/34
f 7/10/35 16/30/35 20/23/35
f 9/12/36 26/32/36 39/45/36
f 9/12/37 5/5/37 26/32/37
f 5/5/38 19/22/38 26/32/38
f 12/15/39 22/25/39 27/33/39
f 12/15/40 11/14/40 22/25/40
f 11/14/41 4/4/41 22/25/41
f 15/18/42 23/28/42 30/36/42
f 15/18/43 14/17/43 23/28/43
f 14/17/44 10/26/44 23/28/44
f 18/21/45 24/29/45 33/39/45
f 18/21/46 17/20/46 24/29/46
f 17/20/47 13/16/47 24/29/47
f 21/24/48 25/31/48 36/42/48
f 21/24/49 20/23/49 25/31/49
f 20/23/50 16/30/50 25/31/50
f 22/25/51 28/34/51 27/33/51
f 22/25/52 9/12/52 28/34/52
f 9/12/53 39/45/53 28/34/53
f 23/28/54 31/37/54 30/36/54
f 23/28/55 12/27/55 31/37/55
f 12/27/56 27/33/56 31/37/56
f 24/29/57 34/40/57 33/39/57
f 24/29/58 15/18/58 34/40/58
f 15/18/59 30/36/59 34/40/59
f 25/31/60 37/43/60 36/42/60
f 25/31/61 18/21/61 37/43/61
f 18/21/62 33/39/62 37/43/62
f 26/32/63 40/46/63 39/45/63
f 26/32/64 21/24/64 40/46/64
f 21/24/65 36/42/65 40/46/65
f 29/35/66 41/47/66 42/48/66
f 29/35/67 28/34/67 41/47/67
f 28/34/68 39/45/68 41/47/68
f 32/38/69 29/35/69 42/48/69
f 32/38/70 31/37/70 29/35/70
f 31/37/71 27/33/71 29/35/71
f 35/41/72 32/38/72 42/48/72
f 35/41/73 34/40/73 32/38/73
f 34/40/74 30/36/74 32/38/74
f 38/44/75 35/41/75 42/48/75
f 38/44/76 37/43/76 35/41/76
f 37/43/77 33/39/77 35/41/77
f 41/47/78 38/44/78 42/48/78
f 41/47/79 40/46/79 38/44/79
f 40/46/80 36/42/80 38/44/80
